<svg width="640" height="512" xmlns="http://www.w3.org/2000/svg" class="svg-inline--fa fa-shuttle-van fa-w-20">
    <g>
        <title>bus</title>
        <rect fill="none" id="canvas_background" height="402" width="582" y="-1" x="-1"/>
    </g>
    <g>
        <title>bus</title>
        <path id="svg_1" d="m628.88,209.65l-134.49,-161.38a48.01,48.01 0 0 0 -36.87,-17.27l-425.52,0c-17.67,0 -32,14.33 -32,32l0,288c0,17.67 14.33,32 32,32l32,0c0,53.02 42.98,96 96,96s96,-42.98 96,-96l128,0c0,53.02 42.98,96 96,96s96,-42.98 96,-96l32,0c17.67,0 32,-14.33 32,-32l0,-110.62c0,-11.23 -3.94,-22.1 -11.12,-30.73zm-564.88,-18.65l0,-96l96,0l0,96l-96,0zm96,240c-26.51,0 -48,-21.49 -48,-48s21.49,-48 48,-48s48,21.49 48,48s-21.49,48 -48,48zm160,-240l-96,0l0,-96l96,0l0,96zm160,240c-26.51,0 -48,-21.49 -48,-48s21.49,-48 48,-48s48,21.49 48,48s-21.49,48 -48,48zm-96,-240l0,-96l66.02,0l80,96l-146.02,0z" fill="#ff0000"/>
    </g>
</svg>